<mxfile host="Electron" modified="2023-08-27T05:00:05.655Z" agent="Mozilla/5.0 (X11; Linux x86_64) AppleWebKit/537.36 (KHTML, like Gecko) draw.io/21.6.8 Chrome/114.0.5735.289 Electron/25.5.0 Safari/537.36" etag="GyHHZmfIR3-sSgwSbehR" version="21.6.8" type="device">
  <diagram name="Page-1" id="FlxvEh6Z079vTOJHUVHF">
    <mxGraphModel dx="818" dy="531" grid="1" gridSize="10" guides="1" tooltips="1" connect="1" arrows="1" fold="1" page="1" pageScale="1" pageWidth="827" pageHeight="1169" math="0" shadow="0">
      <root>
        <mxCell id="0" />
        <mxCell id="1" parent="0" />
        <mxCell id="lcyfEbom2AWa8GddPCZj-6" style="edgeStyle=orthogonalEdgeStyle;rounded=0;orthogonalLoop=1;jettySize=auto;html=1;" edge="1" parent="1" source="lcyfEbom2AWa8GddPCZj-1" target="lcyfEbom2AWa8GddPCZj-5">
          <mxGeometry relative="1" as="geometry" />
        </mxCell>
        <mxCell id="lcyfEbom2AWa8GddPCZj-1" value="Name Node" style="rounded=0;whiteSpace=wrap;html=1;" vertex="1" parent="1">
          <mxGeometry x="350" y="30" width="120" height="35" as="geometry" />
        </mxCell>
        <mxCell id="lcyfEbom2AWa8GddPCZj-18" style="edgeStyle=orthogonalEdgeStyle;rounded=0;orthogonalLoop=1;jettySize=auto;html=1;" edge="1" parent="1" source="lcyfEbom2AWa8GddPCZj-2">
          <mxGeometry relative="1" as="geometry">
            <mxPoint x="310" y="65" as="targetPoint" />
          </mxGeometry>
        </mxCell>
        <mxCell id="lcyfEbom2AWa8GddPCZj-2" value="" style="shape=actor;whiteSpace=wrap;html=1;" vertex="1" parent="1">
          <mxGeometry x="135" y="30" width="60" height="70" as="geometry" />
        </mxCell>
        <mxCell id="lcyfEbom2AWa8GddPCZj-4" value="HDFS Client" style="text;html=1;strokeColor=none;fillColor=none;align=center;verticalAlign=middle;whiteSpace=wrap;rounded=0;" vertex="1" parent="1">
          <mxGeometry x="125" y="110" width="80" height="30" as="geometry" />
        </mxCell>
        <mxCell id="lcyfEbom2AWa8GddPCZj-8" style="edgeStyle=orthogonalEdgeStyle;rounded=0;orthogonalLoop=1;jettySize=auto;html=1;entryX=1;entryY=0.5;entryDx=0;entryDy=0;" edge="1" parent="1" source="lcyfEbom2AWa8GddPCZj-5" target="lcyfEbom2AWa8GddPCZj-1">
          <mxGeometry relative="1" as="geometry">
            <mxPoint x="540" y="123" as="targetPoint" />
            <Array as="points">
              <mxPoint x="510" y="177" />
              <mxPoint x="510" y="48" />
            </Array>
          </mxGeometry>
        </mxCell>
        <mxCell id="lcyfEbom2AWa8GddPCZj-5" value="Secondary Name Node" style="rounded=0;whiteSpace=wrap;html=1;" vertex="1" parent="1">
          <mxGeometry x="340" y="159" width="140" height="35" as="geometry" />
        </mxCell>
        <mxCell id="lcyfEbom2AWa8GddPCZj-11" value="download&lt;br&gt;fs image" style="text;html=1;strokeColor=none;fillColor=none;align=center;verticalAlign=middle;whiteSpace=wrap;rounded=0;" vertex="1" parent="1">
          <mxGeometry x="340" y="95" width="70" height="30" as="geometry" />
        </mxCell>
        <mxCell id="lcyfEbom2AWa8GddPCZj-12" value="update&lt;br&gt;fs image&lt;br style=&quot;font-size: 11px;&quot;&gt;&lt;span style=&quot;font-size: 11px; background-color: rgb(24, 20, 29);&quot;&gt;using logs&lt;/span&gt;" style="text;html=1;strokeColor=none;fillColor=none;align=center;verticalAlign=middle;whiteSpace=wrap;rounded=0;" vertex="1" parent="1">
          <mxGeometry x="510" y="85" width="70" height="50" as="geometry" />
        </mxCell>
        <mxCell id="lcyfEbom2AWa8GddPCZj-14" value="Data Node 1" style="rounded=0;whiteSpace=wrap;html=1;" vertex="1" parent="1">
          <mxGeometry x="10" y="250" width="90" height="35" as="geometry" />
        </mxCell>
        <mxCell id="lcyfEbom2AWa8GddPCZj-16" value="Data Node 2" style="rounded=0;whiteSpace=wrap;html=1;" vertex="1" parent="1">
          <mxGeometry x="120" y="250" width="90" height="35" as="geometry" />
        </mxCell>
        <mxCell id="lcyfEbom2AWa8GddPCZj-17" value="Data Node N" style="rounded=0;whiteSpace=wrap;html=1;" vertex="1" parent="1">
          <mxGeometry x="300" y="250" width="90" height="35" as="geometry" />
        </mxCell>
        <mxCell id="lcyfEbom2AWa8GddPCZj-19" value="request for&lt;br&gt;metadata" style="text;html=1;strokeColor=none;fillColor=none;align=center;verticalAlign=middle;whiteSpace=wrap;rounded=0;" vertex="1" parent="1">
          <mxGeometry x="220" y="33" width="60" height="30" as="geometry" />
        </mxCell>
        <mxCell id="lcyfEbom2AWa8GddPCZj-20" style="rounded=0;orthogonalLoop=1;jettySize=auto;html=1;exitX=0.5;exitY=1;exitDx=0;exitDy=0;entryX=0.5;entryY=0;entryDx=0;entryDy=0;" edge="1" parent="1" source="lcyfEbom2AWa8GddPCZj-4" target="lcyfEbom2AWa8GddPCZj-14">
          <mxGeometry relative="1" as="geometry">
            <mxPoint x="240" y="200" as="targetPoint" />
            <mxPoint x="205" y="75" as="sourcePoint" />
          </mxGeometry>
        </mxCell>
        <mxCell id="lcyfEbom2AWa8GddPCZj-21" style="rounded=0;orthogonalLoop=1;jettySize=auto;html=1;exitX=0.5;exitY=1;exitDx=0;exitDy=0;entryX=0.5;entryY=0;entryDx=0;entryDy=0;" edge="1" parent="1" source="lcyfEbom2AWa8GddPCZj-4" target="lcyfEbom2AWa8GddPCZj-17">
          <mxGeometry relative="1" as="geometry">
            <mxPoint x="65" y="260" as="targetPoint" />
            <mxPoint x="175" y="150" as="sourcePoint" />
          </mxGeometry>
        </mxCell>
        <mxCell id="lcyfEbom2AWa8GddPCZj-22" style="rounded=0;orthogonalLoop=1;jettySize=auto;html=1;entryX=0.5;entryY=0;entryDx=0;entryDy=0;" edge="1" parent="1" target="lcyfEbom2AWa8GddPCZj-16">
          <mxGeometry relative="1" as="geometry">
            <mxPoint x="305" y="260" as="targetPoint" />
            <mxPoint x="165" y="140" as="sourcePoint" />
          </mxGeometry>
        </mxCell>
        <mxCell id="lcyfEbom2AWa8GddPCZj-23" value="Request for&lt;br&gt;actual data" style="edgeLabel;html=1;align=center;verticalAlign=middle;resizable=0;points=[];" vertex="1" connectable="0" parent="lcyfEbom2AWa8GddPCZj-22">
          <mxGeometry x="0.0909" y="-3" relative="1" as="geometry">
            <mxPoint as="offset" />
          </mxGeometry>
        </mxCell>
        <mxCell id="lcyfEbom2AWa8GddPCZj-24" value="" style="endArrow=none;dashed=1;html=1;rounded=0;" edge="1" parent="1">
          <mxGeometry width="50" height="50" relative="1" as="geometry">
            <mxPoint x="230" y="270" as="sourcePoint" />
            <mxPoint x="280" y="270" as="targetPoint" />
          </mxGeometry>
        </mxCell>
      </root>
    </mxGraphModel>
  </diagram>
</mxfile>
